<mxfile host="app.diagrams.net" modified="2023-06-16T13:23:40.542Z" agent="Mozilla/5.0 (Windows NT 10.0; Win64; x64) AppleWebKit/537.36 (KHTML, like Gecko) Chrome/114.0.0.0 Safari/537.36 Edg/114.0.1823.43" etag="fdDQnlJIOOR_xxepAqz6" version="21.3.8" type="github">
  <diagram id="prtHgNgQTEPvFCAcTncT" name="Page-1">
    <mxGraphModel dx="1396" dy="988" grid="1" gridSize="10" guides="1" tooltips="1" connect="1" arrows="1" fold="1" page="1" pageScale="1" pageWidth="827" pageHeight="1169" math="0" shadow="0">
      <root>
        <mxCell id="0" />
        <mxCell id="1" parent="0" />
        <mxCell id="PAoYmnOue6wVEj9ZKUdD-15" style="edgeStyle=orthogonalEdgeStyle;orthogonalLoop=1;jettySize=auto;html=1;exitX=0.5;exitY=1;exitDx=0;exitDy=0;entryX=0.5;entryY=0;entryDx=0;entryDy=0;endArrow=none;endFill=0;curved=1;" edge="1" parent="1" source="PAoYmnOue6wVEj9ZKUdD-1" target="PAoYmnOue6wVEj9ZKUdD-2">
          <mxGeometry relative="1" as="geometry" />
        </mxCell>
        <mxCell id="PAoYmnOue6wVEj9ZKUdD-16" style="edgeStyle=orthogonalEdgeStyle;orthogonalLoop=1;jettySize=auto;html=1;exitX=0.5;exitY=1;exitDx=0;exitDy=0;entryX=0.5;entryY=0;entryDx=0;entryDy=0;curved=1;endArrow=none;endFill=0;" edge="1" parent="1" source="PAoYmnOue6wVEj9ZKUdD-1" target="PAoYmnOue6wVEj9ZKUdD-3">
          <mxGeometry relative="1" as="geometry" />
        </mxCell>
        <mxCell id="PAoYmnOue6wVEj9ZKUdD-17" style="edgeStyle=orthogonalEdgeStyle;orthogonalLoop=1;jettySize=auto;html=1;exitX=0.5;exitY=1;exitDx=0;exitDy=0;curved=1;endArrow=none;endFill=0;" edge="1" parent="1" source="PAoYmnOue6wVEj9ZKUdD-1" target="PAoYmnOue6wVEj9ZKUdD-4">
          <mxGeometry relative="1" as="geometry" />
        </mxCell>
        <mxCell id="PAoYmnOue6wVEj9ZKUdD-18" style="edgeStyle=orthogonalEdgeStyle;orthogonalLoop=1;jettySize=auto;html=1;exitX=0.5;exitY=1;exitDx=0;exitDy=0;entryX=0.5;entryY=0;entryDx=0;entryDy=0;curved=1;endArrow=none;endFill=0;" edge="1" parent="1" source="PAoYmnOue6wVEj9ZKUdD-1" target="PAoYmnOue6wVEj9ZKUdD-5">
          <mxGeometry relative="1" as="geometry" />
        </mxCell>
        <mxCell id="PAoYmnOue6wVEj9ZKUdD-19" style="edgeStyle=orthogonalEdgeStyle;orthogonalLoop=1;jettySize=auto;html=1;exitX=0.5;exitY=1;exitDx=0;exitDy=0;curved=1;endArrow=none;endFill=0;" edge="1" parent="1" source="PAoYmnOue6wVEj9ZKUdD-1" target="PAoYmnOue6wVEj9ZKUdD-6">
          <mxGeometry relative="1" as="geometry" />
        </mxCell>
        <mxCell id="PAoYmnOue6wVEj9ZKUdD-1" value="&lt;font style=&quot;font-size: 14px;&quot;&gt;马克思主义中国化&lt;/font&gt;" style="rounded=1;whiteSpace=wrap;html=1;fontSize=14;" vertex="1" parent="1">
          <mxGeometry x="740" y="40" width="120" height="60" as="geometry" />
        </mxCell>
        <mxCell id="PAoYmnOue6wVEj9ZKUdD-20" style="edgeStyle=orthogonalEdgeStyle;orthogonalLoop=1;jettySize=auto;html=1;exitX=0.5;exitY=1;exitDx=0;exitDy=0;entryX=0.5;entryY=0;entryDx=0;entryDy=0;curved=1;endArrow=none;endFill=0;" edge="1" parent="1" source="PAoYmnOue6wVEj9ZKUdD-2" target="PAoYmnOue6wVEj9ZKUdD-7">
          <mxGeometry relative="1" as="geometry" />
        </mxCell>
        <mxCell id="PAoYmnOue6wVEj9ZKUdD-21" style="edgeStyle=orthogonalEdgeStyle;orthogonalLoop=1;jettySize=auto;html=1;exitX=0.5;exitY=1;exitDx=0;exitDy=0;entryX=0.5;entryY=0;entryDx=0;entryDy=0;curved=1;endArrow=none;endFill=0;" edge="1" parent="1" source="PAoYmnOue6wVEj9ZKUdD-2" target="PAoYmnOue6wVEj9ZKUdD-8">
          <mxGeometry relative="1" as="geometry" />
        </mxCell>
        <mxCell id="PAoYmnOue6wVEj9ZKUdD-22" style="edgeStyle=orthogonalEdgeStyle;orthogonalLoop=1;jettySize=auto;html=1;exitX=0.5;exitY=1;exitDx=0;exitDy=0;curved=1;endArrow=none;endFill=0;" edge="1" parent="1" source="PAoYmnOue6wVEj9ZKUdD-2" target="PAoYmnOue6wVEj9ZKUdD-9">
          <mxGeometry relative="1" as="geometry" />
        </mxCell>
        <mxCell id="PAoYmnOue6wVEj9ZKUdD-2" value="毛泽东思想" style="rounded=1;whiteSpace=wrap;html=1;fontSize=14;" vertex="1" parent="1">
          <mxGeometry x="220" y="210" width="120" height="60" as="geometry" />
        </mxCell>
        <mxCell id="PAoYmnOue6wVEj9ZKUdD-3" value="邓小平理论" style="rounded=1;whiteSpace=wrap;html=1;fontSize=14;" vertex="1" parent="1">
          <mxGeometry x="550" y="210" width="120" height="60" as="geometry" />
        </mxCell>
        <mxCell id="PAoYmnOue6wVEj9ZKUdD-4" value="“三个代表”重要思想" style="rounded=1;whiteSpace=wrap;html=1;fontSize=14;" vertex="1" parent="1">
          <mxGeometry x="739" y="210" width="120" height="60" as="geometry" />
        </mxCell>
        <mxCell id="PAoYmnOue6wVEj9ZKUdD-5" value="科学发展观" style="rounded=1;whiteSpace=wrap;html=1;fontSize=14;" vertex="1" parent="1">
          <mxGeometry x="880" y="210" width="120" height="60" as="geometry" />
        </mxCell>
        <mxCell id="PAoYmnOue6wVEj9ZKUdD-23" style="edgeStyle=orthogonalEdgeStyle;orthogonalLoop=1;jettySize=auto;html=1;exitX=0.5;exitY=1;exitDx=0;exitDy=0;entryX=0.5;entryY=0;entryDx=0;entryDy=0;curved=1;endArrow=none;endFill=0;" edge="1" parent="1" source="PAoYmnOue6wVEj9ZKUdD-6" target="PAoYmnOue6wVEj9ZKUdD-14">
          <mxGeometry relative="1" as="geometry" />
        </mxCell>
        <mxCell id="PAoYmnOue6wVEj9ZKUdD-24" style="edgeStyle=orthogonalEdgeStyle;orthogonalLoop=1;jettySize=auto;html=1;exitX=0.5;exitY=1;exitDx=0;exitDy=0;entryX=0.5;entryY=0;entryDx=0;entryDy=0;curved=1;endArrow=none;endFill=0;" edge="1" parent="1" source="PAoYmnOue6wVEj9ZKUdD-6" target="PAoYmnOue6wVEj9ZKUdD-13">
          <mxGeometry relative="1" as="geometry">
            <Array as="points">
              <mxPoint x="1350" y="320" />
              <mxPoint x="1430" y="320" />
            </Array>
          </mxGeometry>
        </mxCell>
        <mxCell id="PAoYmnOue6wVEj9ZKUdD-25" style="edgeStyle=orthogonalEdgeStyle;orthogonalLoop=1;jettySize=auto;html=1;exitX=0.5;exitY=1;exitDx=0;exitDy=0;entryX=0.5;entryY=0;entryDx=0;entryDy=0;curved=1;endArrow=none;endFill=0;" edge="1" parent="1" source="PAoYmnOue6wVEj9ZKUdD-6" target="PAoYmnOue6wVEj9ZKUdD-12">
          <mxGeometry relative="1" as="geometry">
            <Array as="points">
              <mxPoint x="1350" y="320" />
              <mxPoint x="1280" y="320" />
            </Array>
          </mxGeometry>
        </mxCell>
        <mxCell id="PAoYmnOue6wVEj9ZKUdD-26" style="edgeStyle=orthogonalEdgeStyle;orthogonalLoop=1;jettySize=auto;html=1;exitX=0.5;exitY=1;exitDx=0;exitDy=0;entryX=0.5;entryY=0;entryDx=0;entryDy=0;curved=1;endArrow=none;endFill=0;" edge="1" parent="1" source="PAoYmnOue6wVEj9ZKUdD-6" target="PAoYmnOue6wVEj9ZKUdD-11">
          <mxGeometry relative="1" as="geometry">
            <Array as="points">
              <mxPoint x="1350" y="320" />
              <mxPoint x="1130" y="320" />
            </Array>
          </mxGeometry>
        </mxCell>
        <mxCell id="PAoYmnOue6wVEj9ZKUdD-27" style="edgeStyle=orthogonalEdgeStyle;orthogonalLoop=1;jettySize=auto;html=1;exitX=0.5;exitY=1;exitDx=0;exitDy=0;entryX=0.5;entryY=0;entryDx=0;entryDy=0;curved=1;endArrow=none;endFill=0;" edge="1" parent="1" source="PAoYmnOue6wVEj9ZKUdD-6" target="PAoYmnOue6wVEj9ZKUdD-10">
          <mxGeometry relative="1" as="geometry" />
        </mxCell>
        <mxCell id="PAoYmnOue6wVEj9ZKUdD-6" value="习近平新时代中国特色社会主义思想" style="rounded=1;whiteSpace=wrap;html=1;fontSize=14;" vertex="1" parent="1">
          <mxGeometry x="1290" y="210" width="120" height="60" as="geometry" />
        </mxCell>
        <mxCell id="PAoYmnOue6wVEj9ZKUdD-7" value="新民主主义革命理论" style="rounded=1;whiteSpace=wrap;html=1;fontSize=14;" vertex="1" parent="1">
          <mxGeometry x="70" y="360" width="120" height="60" as="geometry" />
        </mxCell>
        <mxCell id="PAoYmnOue6wVEj9ZKUdD-8" value="社会主义改造理论" style="rounded=1;whiteSpace=wrap;html=1;fontSize=14;" vertex="1" parent="1">
          <mxGeometry x="220" y="360" width="120" height="60" as="geometry" />
        </mxCell>
        <mxCell id="PAoYmnOue6wVEj9ZKUdD-9" value="社会主义的初步探索" style="rounded=1;whiteSpace=wrap;html=1;fontSize=14;" vertex="1" parent="1">
          <mxGeometry x="370" y="360" width="120" height="60" as="geometry" />
        </mxCell>
        <mxCell id="PAoYmnOue6wVEj9ZKUdD-10" value="坚持和发展中国特色社会主义" style="rounded=1;whiteSpace=wrap;html=1;fontSize=14;" vertex="1" parent="1">
          <mxGeometry x="920" y="360" width="120" height="60" as="geometry" />
        </mxCell>
        <mxCell id="PAoYmnOue6wVEj9ZKUdD-11" value="“五位一体”总体布局" style="rounded=1;whiteSpace=wrap;html=1;fontSize=14;" vertex="1" parent="1">
          <mxGeometry x="1070" y="360" width="120" height="60" as="geometry" />
        </mxCell>
        <mxCell id="PAoYmnOue6wVEj9ZKUdD-12" value="“四个全面”战略布局" style="rounded=1;whiteSpace=wrap;html=1;fontSize=14;" vertex="1" parent="1">
          <mxGeometry x="1220" y="360" width="120" height="60" as="geometry" />
        </mxCell>
        <mxCell id="PAoYmnOue6wVEj9ZKUdD-13" value="总体国家安全观" style="rounded=1;whiteSpace=wrap;html=1;fontSize=14;" vertex="1" parent="1">
          <mxGeometry x="1370" y="360" width="120" height="60" as="geometry" />
        </mxCell>
        <mxCell id="PAoYmnOue6wVEj9ZKUdD-14" value="中国特色大国外交" style="rounded=1;whiteSpace=wrap;html=1;fontSize=14;" vertex="1" parent="1">
          <mxGeometry x="1520" y="360" width="120" height="60" as="geometry" />
        </mxCell>
      </root>
    </mxGraphModel>
  </diagram>
</mxfile>
